<?xml version="1.0" encoding="UTF-8" standalone="no"?>
<svg
   xmlns:dc="http://purl.org/dc/elements/1.1/"
   xmlns:cc="http://creativecommons.org/ns#"
   xmlns:rdf="http://www.w3.org/1999/02/22-rdf-syntax-ns#"
   xmlns:svg="http://www.w3.org/2000/svg"
   xmlns="http://www.w3.org/2000/svg"
   id="svg2440"
   height="80"
   width="100"
   version="1.1">
  <metadata
     id="metadata12">
    <rdf:RDF>
      <cc:Work
         rdf:about="">
        <dc:format>image/svg+xml</dc:format>
        <dc:type
           rdf:resource="http://purl.org/dc/dcmitype/StillImage" />
        <dc:title></dc:title>
      </cc:Work>
    </rdf:RDF>
  </metadata>
  <defs
     id="defs2443">
    <clipPath
       id="clipPath1178"
       clipPathUnits="userSpaceOnUse">
      <path
         id="path1180"
         d="m 111.968,124.376 22.678,0 0,18.358 -22.678,0 0,-18.358 z" />
    </clipPath>
  </defs>
  <g
     id="g1174"
     transform="matrix(5.3615424,0,0,-5.3615424,-610.53673,757.44139)">
    <g
       clip-path="url(#clipPath1178)"
       id="g1176">
      <g
         transform="translate(116.8623,133.817)"
         id="g1182">
        <path
           id="path1184"
           style="fill:#f5a615;fill-opacity:1;fill-rule:nonzero;stroke:none"
           d="m 0,0 c -0.012,-1.71 0.643,-3.318 1.845,-4.528 1.201,-1.208 2.803,-1.875 4.514,-1.875 3.526,0 6.414,2.869 6.438,6.395 0.012,1.71 -0.643,3.317 -1.845,4.527 C 9.751,5.728 8.149,6.394 6.439,6.394 2.914,6.394 0.026,3.526 0,0 M 2.646,-3.731 C 1.658,-2.738 1.12,-1.415 1.129,-0.008 1.15,2.9 3.532,5.264 6.439,5.264 7.846,5.264 9.163,4.717 10.15,3.723 11.138,2.728 11.677,1.406 11.667,0 11.647,-2.908 9.266,-5.273 6.359,-5.273 c -1.407,0 -2.726,0.548 -3.713,1.542" />
      </g>
      <g
         transform="translate(115.951,128.4572)"
         id="g1186">
        <path
           id="path1188"
           style="fill:#f5a615;fill-opacity:1;fill-rule:nonzero;stroke:none"
           d="M 0,0 C -3.249,3.883 -1.762,8.372 0.196,10.799 L 1.365,9.839 C -0.245,7.844 -1.467,4.153 1.204,0.96" />
      </g>
      <g
         transform="translate(130.3761,128.4572)"
         id="g1190">
        <path
           id="path1192"
           style="fill:#f5a615;fill-opacity:1;fill-rule:nonzero;stroke:none"
           d="M 0,0 C 3.303,3.882 1.878,8.372 -0.047,10.799 L -1.228,9.839 C 0.353,7.843 1.526,4.153 -1.192,0.96" />
      </g>
      <g
         transform="translate(119.5938,132.7794)"
         id="g1194">
        <path
           id="path1196"
           style="fill:#f5a615;fill-opacity:1;fill-rule:nonzero;stroke:none"
           d="m 0,0 -0.209,-0.697 -0.652,0 1.107,3.679 0.928,0 1.094,-3.679 -0.638,0 L 1.418,0 0,0 Z m 0.724,2.442 -0.008,0 -0.569,-1.907 1.134,0" />
      </g>
      <g
         transform="translate(122.04221,132.08279)"
         id="g1198">
        <path
           id="path1200"
           style="fill:#f5a615;fill-opacity:1;fill-rule:nonzero;stroke:none"
           d="m 0,0 0.016,3.679 1.633,0 C 2.292,3.679 2.616,3.532 2.612,2.722 2.61,2.3 2.538,2.016 2.14,1.909 l 0,-0.02 C 2.599,1.829 2.685,1.491 2.682,1.025 2.679,0.211 2.38,0 1.689,0 L 0,0 Z m 0.633,0.604 0.862,0 c 0.376,0 0.556,0.029 0.558,0.48 10e-4,0.403 -0.076,0.52 -0.449,0.52 l -0.967,0 -0.004,-1 z m 0.006,1.534 0.907,0 c 0.354,0 0.433,0.124 0.435,0.516 0.002,0.392 -0.139,0.422 -0.449,0.422 l -0.888,0" />
      </g>
      <g
         transform="translate(125.58749,133.2549)"
         id="g1202">
        <path
           id="path1204"
           style="fill:#f5a615;fill-opacity:1;fill-rule:nonzero;stroke:none"
           d="m 0,0 -0.001,-0.171 c -0.001,-0.422 0.16,-0.451 0.743,-0.451 0.572,0 0.652,0.117 0.654,0.544 0.003,0.524 -0.247,0.456 -0.738,0.485 -0.708,0.049 -1.269,0.02 -1.264,1.089 0.005,1.011 0.574,1.04 1.361,1.04 0.67,0 1.217,-0.025 1.213,-0.991 l 0,-0.118 -0.631,0 0,0.118 C 1.34,1.942 1.195,1.958 0.753,1.958 0.127,1.958 0.026,1.889 0.024,1.496 0.023,1.045 0.105,1.031 0.744,0.986 1.755,0.917 2.03,0.858 2.026,-0.078 2.022,-1.113 1.584,-1.201 0.739,-1.201 c -0.726,0 -1.374,-0.025 -1.37,1.03 L -0.63,0" />
      </g>
    </g>
  </g>
</svg>
