<svg version="1.1" xmlns="http://www.w3.org/2000/svg" xmlns:xlink="http://www.w3.org/1999/xlink" width="800" height="800"><defs/><g transform="scale(2,2)"><g id="background-1f9ef2b1"><rect fill="white" stroke="none" x="0" y="0" width="400" height="400" class="dcg-svg-background"/></g><g id="background-images-1f9ef2b1"/><g id="graphpaper-1f9ef2b1"><g id="axis-1f9ef2b1"><path fill="none" stroke="rgb(0,0,0)" class="dcg-svg-axis-line" paint-order="fill stroke markers" d=" M 73 0 L 73 400" stroke-opacity="0.9" stroke-miterlimit="10" stroke-width="1.5" stroke-dasharray=""/><g><g><path fill="none" stroke="rgb(0,0,0)" class="dcg-svg-tickmark" paint-order="fill stroke markers" d=" M 70 400 L 76 400 M 70 200 L 76 200 M 70 0 L 76 0" stroke-opacity="0.9" stroke-miterlimit="2" stroke-width="1.5" stroke-dasharray=""/></g><g class="dcg-svg-axis-value dcg-svg-offcenter-axis-value"><text fill="none" stroke="#ffffff" font-family="Arial" font-size="14px" font-style="normal" font-weight="normal" text-decoration="normal" x="64.0692405665723" y="393.808" text-anchor="middle" stroke-miterlimit="2" stroke-width="3" stroke-dasharray="">0</text><text fill="#000000" stroke="none" font-family="Arial" font-size="14px" font-style="normal" font-weight="normal" text-decoration="normal" x="64.0692405665723" y="393.808" text-anchor="middle">0</text></g><g class="dcg-svg-axis-value"><text fill="none" stroke="#ffffff" font-family="Arial" font-size="14px" font-style="normal" font-weight="normal" text-decoration="normal" x="58.231349941572304" y="203.808" text-anchor="middle" stroke-miterlimit="2" stroke-width="3" stroke-dasharray="">0.5</text><text fill="#000000" stroke="none" font-family="Arial" font-size="14px" font-style="normal" font-weight="normal" text-decoration="normal" x="58.231349941572304" y="203.808" text-anchor="middle">0.5</text></g><g class="dcg-svg-axis-value dcg-svg-offcenter-axis-value"><text fill="none" stroke="#ffffff" font-family="Arial" font-size="14px" font-style="normal" font-weight="normal" text-decoration="normal" x="64.0692405665723" y="13.808" text-anchor="middle" stroke-miterlimit="2" stroke-width="3" stroke-dasharray="">1</text><text fill="#000000" stroke="none" font-family="Arial" font-size="14px" font-style="normal" font-weight="normal" text-decoration="normal" x="64.0692405665723" y="13.808" text-anchor="middle">1</text></g></g></g></g><g id="expressions-1f9ef2b1"><path fill="#c74440" stroke="none" paint-order="stroke fill markers" d="" fill-opacity="0.4"/><g><path fill="none" stroke="#c74440" class="dcg-svg-curve" paint-order="fill stroke markers" d=" M 71.9169667832007 -3 L 71.9169667832007 -3 L 73.42578125 3.7730123431268225 L 76.55078125 17.320771260059757 L 79.67578125 30.40472109296212 L 82.80078125 43.040740399147126 L 85.92578125 55.24416413169297 L 89.05078125 67.02980224979632 L 92.17578125 78.41195769199805 L 95.30078125 89.40444373409383 L 98.5234375 100.34643350690317 L 101.74609374999999 110.90232571149835 L 104.96875 121.08574413434576 L 108.19140625 130.9098318348287 L 111.51171874999999 140.66918204032612 L 114.83203125 150.07392166166034 L 118.15234375 159.13693564134834 L 121.57031249999999 168.12265284061547 L 124.98828124999999 176.7724485712466 L 128.40625 185.09888089962513 L 131.921875 193.33858577483278 L 135.4375 201.2616284203123 L 139.05078125 209.08757240011485 L 142.6640625 216.6045681239014 L 146.375 224.01594619503058 L 150.0859375 231.12699678203515 L 153.89453125 238.1256559728252 L 157.80078125 245.0016829375969 L 161.70703125 251.5847280959651 L 165.7109375 258.04134941079457 L 169.8125 264.3633224506618 L 173.9140625 270.40275820524937 L 178.11328125 276.30646384989416 L 182.41015624999997 282.0680937232475 L 186.80468749999997 287.6820484599955 L 191.29687499999997 293.143463887473 L 195.88671875 298.44819654471377 L 200.57421875 303.5928060775125 L 205.359375 308.57453477402754 L 210.33984374999997 313.48497055676535 L 215.41796874999997 318.2187480259938 L 220.59374999999997 322.77557222118014 L 225.96484374999997 327.23443626423057 L 231.43359375 331.50822746481356 L 237.09765625 335.66839054943335 L 242.95703125 339.7043364513889 L 249.01171874999997 343.60691931849124 L 255.26171874999997 347.36842230481693 L 261.70703125 350.98252925327614 L 268.4453125 354.49330404003524 L 275.37890625 357.84083377118014 L 282.60546875 361.06510397909824 L 290.125 364.15544305228457 L 297.93749999999994 367.1032780627843 L 306.140625 369.93427582642875 L 314.734375 372.63512031848865 L 323.71874999999994 375.19530334298236 L 333.19140624999994 377.6308618436155 L 343.15234375 379.92916798459 L 353.69921874999994 382.0999578743701 L 364.9296875 384.1474001276809 L 376.84375 386.0567528263721 L 389.63671874999994 387.8434100150219 L 399.5 389.05708098455267" stroke-linecap="round" stroke-linejoin="round" stroke-miterlimit="10" stroke-width="2.5" stroke-opacity="0.7" stroke-dasharray=""/></g></g></g></svg>