<?xml version="1.0" standalone="no"?>
<!DOCTYPE svg PUBLIC "-//W3C//DTD SVG 20010904//EN"
 "http://www.w3.org/TR/2001/REC-SVG-20010904/DTD/svg10.dtd">
<svg version="1.0" xmlns="http://www.w3.org/2000/svg"
 width="1280.000000pt" height="960.000000pt" viewBox="0 0 1280.000000 960.000000"
 preserveAspectRatio="xMidYMid meet">
<metadata>
Created by potrace 1.15, written by Peter Selinger 2001-2017
</metadata>
<g transform="translate(0.000000,960.000000) scale(0.100000,-0.100000)"
fill="#000000" stroke="none">
<path d="M6697 8641 c-49 -32 -58 -55 -68 -174 -5 -62 -14 -161 -19 -222 -6
-60 -14 -176 -17 -258 -3 -81 -10 -150 -15 -153 -4 -3 -8 -46 -8 -95 0 -85 -5
-158 -30 -459 -6 -69 -16 -192 -21 -275 -6 -82 -12 -175 -14 -205 -3 -30 -9
-136 -15 -235 -6 -99 -15 -225 -21 -280 -5 -55 -18 -244 -29 -420 -11 -176
-27 -401 -35 -500 -8 -99 -19 -250 -25 -335 -6 -85 -15 -218 -21 -295 -5 -77
-14 -201 -19 -275 -6 -74 -14 -182 -20 -240 -5 -58 -12 -144 -15 -192 l-7 -87
-27 20 c-19 14 -73 28 -182 46 l-155 26 -18 41 c-10 23 -45 106 -78 186 -33
80 -66 159 -73 175 -7 17 -30 71 -50 120 -20 50 -44 108 -54 130 -10 22 -21
50 -25 62 -9 27 -59 71 -92 79 -60 15 -121 -40 -152 -138 -17 -54 -68 -199
-168 -483 -14 -38 -34 -98 -46 -133 -11 -35 -26 -66 -32 -68 -6 -2 -94 0 -194
5 -275 14 -280 10 -341 -208 -6 -21 -12 -12 -42 63 -19 49 -48 105 -65 125
l-32 36 -239 -3 c-265 -4 -224 -11 -398 68 -27 12 -64 28 -81 36 -16 7 -61 27
-99 44 -38 17 -85 38 -104 47 -20 8 -70 32 -111 52 -103 50 -158 49 -255 -3
-101 -55 -238 -127 -414 -217 l-154 -79 -506 1 c-278 1 -684 4 -903 8 l-396 6
-42 48 c-52 59 -107 88 -180 94 -102 10 -196 -31 -251 -108 -46 -65 -72 -174
-50 -217 5 -9 15 -30 22 -47 24 -54 76 -110 125 -135 67 -35 190 -35 249 -1
54 31 73 49 102 95 l25 38 932 -7 932 -8 105 55 c123 66 272 144 423 222 l109
57 128 -56 c71 -31 183 -82 251 -114 68 -32 157 -73 198 -91 l75 -33 191 7
192 7 47 -113 c26 -62 55 -131 65 -153 9 -22 27 -65 40 -95 50 -124 97 -163
170 -141 68 20 92 64 121 221 16 87 29 156 42 210 12 53 14 55 47 59 19 2 103
-2 185 -9 144 -11 152 -11 197 8 62 27 83 63 142 237 26 77 50 147 53 155 4 8
20 57 38 108 17 51 35 93 40 93 7 0 43 -82 146 -336 58 -141 60 -145 100 -186
32 -32 46 -38 115 -49 226 -36 241 -39 252 -54 10 -12 39 -64 103 -181 47 -86
82 -115 141 -115 93 0 117 47 128 250 7 128 19 308 34 510 3 36 10 135 15 220
6 85 15 214 20 285 5 72 15 218 21 325 6 107 15 214 20 238 6 23 10 85 10 137
0 52 4 125 10 162 5 38 15 142 21 233 6 91 15 221 20 290 5 69 13 190 18 270
20 307 31 457 38 505 7 48 7 47 15 -45 9 -102 26 -333 34 -440 11 -158 25
-337 39 -485 8 -88 15 -191 15 -230 0 -38 4 -104 10 -145 5 -41 14 -149 20
-240 6 -91 15 -203 20 -250 6 -47 14 -166 20 -265 11 -190 17 -282 50 -675 11
-135 24 -317 30 -405 5 -88 12 -182 15 -208 7 -61 32 -357 45 -547 18 -257 30
-412 40 -530 19 -206 31 -362 40 -505 5 -77 11 -171 14 -210 3 -38 13 -164 21
-280 9 -115 20 -244 25 -285 6 -41 10 -118 10 -170 0 -104 19 -191 47 -222 10
-11 34 -29 54 -39 l37 -18 40 29 c23 16 46 39 52 50 13 24 24 114 45 370 8
102 22 248 30 325 8 77 22 219 30 315 8 96 17 195 20 220 29 269 61 597 74
765 6 66 19 210 30 320 23 233 26 259 40 425 6 69 13 155 17 193 l7 67 76 0
c42 0 204 -5 361 -11 253 -10 289 -9 321 5 24 10 74 58 145 138 149 169 155
176 206 233 25 28 56 63 69 80 13 16 47 54 74 85 28 30 97 108 154 173 l104
118 21 -20 c11 -12 41 -48 66 -81 44 -59 351 -441 392 -490 12 -14 37 -45 56
-70 19 -25 48 -56 65 -70 l32 -25 1160 -9 c1027 -7 1161 -10 1169 -23 20 -35
82 -96 116 -113 90 -46 213 -34 295 28 38 29 59 56 87 112 40 80 44 103 27
147 -46 111 -75 150 -152 201 -36 24 -50 27 -121 27 -116 0 -163 -26 -258
-144 -10 -12 -143 -13 -917 -7 -1199 10 -1323 13 -1333 31 -5 8 -14 20 -21 27
-12 12 -219 271 -277 345 -91 117 -281 353 -311 386 -32 36 -41 40 -83 40 -63
0 -57 6 -416 -403 -151 -171 -270 -308 -336 -384 -34 -39 -73 -82 -88 -95
l-26 -24 -217 12 c-120 6 -300 12 -400 14 -181 2 -181 2 -208 -23 -15 -14 -33
-36 -40 -50 -14 -29 -30 -154 -45 -365 -6 -82 -15 -177 -21 -210 -5 -33 -14
-118 -20 -190 -6 -71 -15 -170 -19 -220 -16 -163 -29 -308 -44 -478 -8 -93
-16 -171 -19 -173 -10 -10 -26 95 -31 201 -3 61 -13 196 -21 300 -9 105 -20
249 -25 320 -5 72 -14 184 -19 250 -21 267 -43 557 -52 680 -5 72 -11 155 -14
185 -2 30 -11 156 -20 280 -9 124 -20 258 -26 298 -5 40 -9 108 -9 152 0 43
-4 100 -9 127 -6 26 -15 131 -21 233 -6 102 -15 221 -20 265 -6 44 -15 150
-20 235 -22 333 -30 451 -45 615 -9 94 -20 244 -26 335 -5 91 -13 219 -19 285
-5 66 -16 208 -24 315 -9 107 -18 215 -21 240 -5 53 -11 134 -25 360 -6 91
-15 201 -20 245 -5 44 -12 132 -15 195 -8 150 -19 193 -62 230 -39 35 -75 38
-116 11z"/>
</g>
</svg>
