<?xml version="1.0" encoding="utf-8"?>
<!-- Svg Vector Icons : http://www.onlinewebfonts.com/icon -->
<!DOCTYPE svg PUBLIC "-//W3C//DTD SVG 1.1//EN" "http://www.w3.org/Graphics/SVG/1.1/DTD/svg11.dtd">
<svg version="1.1" xmlns="http://www.w3.org/2000/svg" xmlns:xlink="http://www.w3.org/1999/xlink" x="0px" y="0px" viewBox="0 0 1000 1000" enable-background="new 0 0 1000 1000" xml:space="preserve">
<metadata> Svg Vector Icons : http://www.onlinewebfonts.com/icon </metadata>
<g><g transform="translate(0.000000,511.000000) scale(0.100000,-0.100000)"><path d="M2253.4,2409.2c-65.6-29.8-125.3-119.3-125.3-190.9c0-73.6,59.6-161.1,129.2-190.9c45.7-17.9,143.2-27.8,288.3-27.8h218.7v-208.8V1582h-536.8h-536.9l-43.8,91.5c-61.6,131.2-232.6,308.2-357.9,369.8c-57.7,29.8-304.2,109.4-544.8,177c-409.6,115.3-445.4,121.3-505,97.4c-69.6-29.8-139.2-125.3-139.2-192.9c0-63.6,39.8-141.2,87.5-171c23.9-15.9,234.6-83.5,469.2-153.1c461.3-133.2,503-149.1,572.6-224.7c61.6-65.6,65.6-87.5,173-1554.9c95.4-1310.3,99.4-1332.2,200.8-1379.9c35.8-15.9,564.7-21.9,1845.2-21.9c1590.7,0,1807.4,4,1902.8,31.8c141.2,41.8,248.5,107.4,348,210.8c45.7,47.7,457.3,636.3,914.6,1308.3c455.3,672.1,839.1,1228.8,851,1236.7c9.9,6,202.8,57.7,427.5,115.3l407.6,101.4l159.1-155.1c326.1-316.1,359.9-344,447.4-344c153.1,0,252.5,143.2,194.9,280.4c-31.8,75.6-606.4,636.3-678,660.1c-29.8,9.9-441.4-83.5-1336.1-306.2c-2457.6-608.4-2238.9-558.7-2284.6-519c-274.4,240.6-344,300.2-381.8,320.1c-29.8,13.9-232.6,21.9-640.2,21.9h-598.5v206.8v206.8l260.5,6l260.5,8l57.7,65.6c79.5,89.5,79.5,196.9,0,286.3l-57.7,65.6l-693.9,4C2450.2,2435,2305.1,2431,2253.4,2409.2z M6737.1,1110.8C6582,880.1,5446.6-788.1,5410.8-837.8c-17.9-25.8-67.6-63.6-113.3-85.5c-77.5-39.8-115.3-39.8-1733.8-39.8H1909.4l-8,45.7c-9.9,39.8-153.1,1998.3-151.1,2055.9c0,19.9,272.4,25.8,1248.7,25.8l1246.7-2l226.7-196.8c210.8-184.9,232.6-198.8,308.2-196.8c45.7,0,520.9,111.4,1055.8,246.6c536.8,133.2,982.2,244.6,990.2,246.6C6834.5,1263.9,6794.7,1194.3,6737.1,1110.8z"/><path d="M8806.9,657.4c-61.7-33.8-186.9-224.7-405.6-616.4c-272.4-487.1-447.4-898.7-485.2-1139.3c-69.6-449.4,278.4-950.4,751.6-1081.7c399.6-111.3,833.1,69.6,1079.7,451.4c169,258.5,196.8,550.8,87.5,874.9c-99.4,290.3-346,783.4-614.4,1228.8C9039.5,675.3,8950.1,735,8806.9,657.4z M9073.3-223.4c268.4-487.1,411.6-835.1,411.6-1002.1c0-224.7-129.2-429.5-322.1-513c-147.1-63.6-365.8-65.6-503-4c-286.3,131.2-393.7,419.5-278.4,757.5C8464.9-734.4,8864.6,51,8906.3,51C8914.3,51,8989.8-72.3,9073.3-223.4z"/></g></g>
</svg>